<?xml version="1.0" encoding="UTF-8"?>
<svg width="10px" height="12px" viewBox="0 0 10 12" version="1.1" xmlns="http://www.w3.org/2000/svg" xmlns:xlink="http://www.w3.org/1999/xlink">
    <title>编组@2x</title>
    <g id="页面-1" stroke="none" stroke-width="1" fill="none" fill-rule="evenodd">
        <g id="画板" transform="translate(-15.000000, -93.000000)" fill="#CCCCCC" fill-rule="nonzero">
            <g id="编组" transform="translate(15.610000, 93.600000)">
                <path d="M8.11372348,4.5159623 C8.23025812,4.34083308 8.46332737,4.34083308 8.63812931,4.5159623 C8.81293125,4.69109152 8.81293125,4.92459714 8.63812931,5.04134995 L8.63812931,5.04134995 L3.2192691,10.4703557 L3.10273448,10.5871085 C2.86966521,10.8206142 2.52006133,10.8206142 2.28699207,10.5871085 L2.28699207,10.5871085 L2.17045744,10.4703557 L0.131101457,8.42718151 C-0.0437004856,8.31042869 -0.0437004856,8.07692307 0.131101457,7.90179385 C0.247636091,7.72666463 0.480705342,7.72666463 0.655507284,7.90179385 L0.655507284,7.90179385 L2.69486327,9.94496807 Z M8.11372348,0.131346914 C8.23025812,-0.0437823046 8.46332737,-0.0437823046 8.63812931,0.131346914 C8.81293125,0.306476132 8.81293125,0.539981752 8.63812931,0.65673457 L8.63812931,0.65673457 L3.2192691,6.08574035 L3.10273448,6.20249316 C2.86966521,6.43599878 2.52006133,6.43599878 2.28699207,6.20249316 L2.28699207,6.20249316 L2.17045744,6.08574035 L0.131101457,4.04256612 C-0.0437004856,3.9258133 -0.0437004856,3.69230769 0.131101457,3.51717847 C0.247636091,3.34204925 0.480705342,3.34204925 0.655507284,3.51717847 L0.655507284,3.51717847 L2.69486327,5.56035269 Z" id="形状结合"></path>
            </g>
        </g>
    </g>
</svg>